<svg width="57" height="57" viewBox="0 0 57 57" fill="none" xmlns="http://www.w3.org/2000/svg">
<path d="M16.6171 48.1297C20.2355 49.9639 24.2962 50.9203 28.3568 51C28.5579 51 28.7991 51 29.0001 51C33.101 51 37.1617 50.123 40.8605 48.3689C44.2373 46.7743 47.2932 44.3824 49.5451 41.3925C52.1178 37.9637 53.4446 33.858 53.4446 29.592C53.4446 26.8812 53.4446 24.2102 53.4446 21.4994C53.4446 18.5494 53.4446 15.6392 53.4446 12.6892C53.4446 11.6527 53.4446 10.6162 53.4446 9.61959C53.4446 7.74593 51.5553 6.51011 49.8261 7.18781L40.6595 10.975C40.0564 11.2142 39.3729 11.2541 38.7698 11.0149C35.7947 9.85878 32.4979 9.2608 29.0001 9.2608C25.5023 9.2608 22.2055 9.89864 19.2304 11.0149C18.6273 11.2541 17.9438 11.2142 17.3408 10.975L8.17409 7.30781C6.44528 6.59023 4.55566 7.86592 4.55566 9.73958C4.55566 11.1349 4.55566 12.57 4.55566 13.9653C4.55566 16.8754 4.55566 19.7856 4.55566 22.7356C4.55566 25.2073 4.55566 27.639 4.55566 30.1107C4.55566 34.0573 5.84221 37.8844 8.13388 41.0736C10.3049 44.0635 13.2801 46.4554 16.6171 48.1297ZM37.9255 29.6722C40.1368 29.6722 41.946 31.4661 41.946 33.6587C41.946 35.8512 40.1368 37.6452 37.9255 37.6452C35.7143 37.6452 33.9051 35.8512 33.9051 33.6587C33.9051 31.4266 35.7143 29.6722 37.9255 29.6722ZM20.0747 29.6722C22.2859 29.6722 24.0951 31.4661 24.0951 33.6587C24.0951 35.8512 22.2859 37.6452 20.0747 37.6452C17.8634 37.6452 16.0542 35.8512 16.0542 33.6587C16.0542 31.4266 17.8634 29.6722 20.0747 29.6722Z" fill="#828282"/>
</svg>
