<svg width="60" height="60" viewBox="0 0 60 60" fill="none" xmlns="http://www.w3.org/2000/svg">
<rect width="60" height="60" rx="30" fill="white"/>
<path d="M42.375 22.9335C41.4371 23.3249 40.4281 23.5896 39.37 23.7078C40.4503 23.0987 41.2794 22.135 41.6708 20.9848C40.6599 21.5491 39.5397 21.9584 38.3486 22.1791C37.3942 21.2227 36.0345 20.625 34.5289 20.625C31.6402 20.625 29.2973 22.8296 29.2973 25.5478C29.2973 25.9337 29.3437 26.3092 29.4334 26.6698C25.0855 26.4645 21.2303 24.5048 18.6498 21.5256C18.1996 22.2525 17.9413 23.0987 17.9413 24.0007C17.9413 25.7083 18.8656 27.2157 20.2686 28.0983C19.4114 28.0729 18.6042 27.8515 17.8992 27.4818C17.8988 27.5028 17.8988 27.5237 17.8988 27.5443C17.8988 29.9295 19.7029 31.919 22.0957 32.3709C21.6572 32.484 21.1941 32.5438 20.7177 32.5438C20.3798 32.5438 20.0525 32.5133 19.7333 32.4561C20.3989 34.4114 22.3306 35.8347 24.6204 35.8748C22.8296 37.1953 20.5741 37.9821 18.1223 37.9821C17.701 37.9821 17.2835 37.9589 16.875 37.9131C19.189 39.3103 21.9397 40.125 24.8939 40.125C34.5168 40.125 39.7793 32.6238 39.7793 26.118C39.7793 25.9047 39.7742 25.6921 39.7641 25.4814C40.7871 24.7875 41.6739 23.9207 42.375 22.9335Z" fill="#55ACEE"/>
</svg>
