<svg width="60" height="60" viewBox="0 0 60 60" fill="none" xmlns="http://www.w3.org/2000/svg">
<rect width="60" height="60" rx="30" fill="white"/>
<path d="M30 45C38.2862 45 45 38.2862 45 30C45 21.7137 38.2862 15 30 15C21.7137 15 15 21.7137 15 30C15 38.2862 21.7137 45 30 45ZM21.8637 29.675L36.3263 24.0987C36.9975 23.8562 37.5837 24.2625 37.3662 25.2775L37.3675 25.2762L34.905 36.8775C34.7225 37.7 34.2337 37.9 33.55 37.5125L29.8 34.7487L27.9912 36.4913C27.7912 36.6912 27.6225 36.86 27.235 36.86L27.5012 33.0438L34.4513 26.765C34.7537 26.4987 34.3837 26.3488 33.985 26.6138L25.3962 32.0212L21.6938 30.8662C20.89 30.6112 20.8725 30.0625 21.8637 29.675Z" fill="#4D92DD"/>
</svg>
