<svg width="60" height="60" viewBox="0 0 60 60" fill="none" xmlns="http://www.w3.org/2000/svg">
<rect width="60" height="60" rx="30" fill="white"/>
<g clip-path="url(#clip0)">
<path fill-rule="evenodd" clip-rule="evenodd" d="M17.1062 37.5822L15.0327 45.0986L22.7047 43.0252C24.9337 44.2693 27.4219 45.0986 30.0138 45.0986C38.2561 45.0986 45.0986 38.1523 45.0986 29.962C45.0986 21.7717 38.256 15.0327 30.0138 15.0327C21.7717 15.0327 15.0327 21.7717 15.0327 29.962C15.0327 32.6576 15.7585 35.2495 17.1062 37.5822Z" fill="#55CD6C"/>
<path d="M26.8871 24.0967L26.0594 24.0527C25.798 24.0527 25.5367 24.1406 25.3624 24.3162C24.9703 24.6674 24.3169 25.3259 24.1427 26.2041C23.8377 27.5212 24.3169 29.1017 25.4496 30.6822C26.5822 32.2627 28.7604 34.8091 32.594 35.9067C33.8137 36.2579 34.7722 36.0384 35.5563 35.5555C36.1662 35.1603 36.5582 34.5457 36.689 33.8871L36.8197 33.2725C36.8632 33.0969 36.7761 32.8773 36.6018 32.7895L33.8573 31.5163C33.6831 31.4285 33.4652 31.4724 33.3346 31.648L32.2455 33.0529C32.1583 33.1408 32.0276 33.1846 31.897 33.1408C31.1564 32.8773 28.6733 31.8237 27.3228 29.1895C27.2792 29.0578 27.2792 28.926 27.3663 28.8382L28.4119 27.6529C28.499 27.5212 28.5425 27.3456 28.499 27.2138L27.2357 24.3601C27.192 24.2283 27.0614 24.0967 26.8871 24.0967Z" fill="white"/>
</g>
<defs>
<clipPath id="clip0">
<rect width="30.0659" height="30.0659" fill="white" transform="translate(15.0327 15.0327)"/>
</clipPath>
</defs>
</svg>
