<svg width="60" height="60" viewBox="0 0 60 60" fill="none" xmlns="http://www.w3.org/2000/svg">
<rect width="60" height="60" rx="30" fill="white"/>
<path d="M36.9356 16.8806L33.3378 16.875C29.2958 16.875 26.6837 19.4831 26.6837 23.5197V26.5834H23.0662C22.7536 26.5834 22.5005 26.83 22.5005 27.1342V31.5731C22.5005 31.8773 22.7539 32.1237 23.0662 32.1237H26.6837V43.3245C26.6837 43.6287 26.9368 43.875 27.2494 43.875H31.9691C32.2817 43.875 32.5348 43.6284 32.5348 43.3245V32.1237H36.7645C37.0771 32.1237 37.3302 31.8773 37.3302 31.5731L37.3319 27.1342C37.3319 26.9882 37.2722 26.8483 37.1662 26.7449C37.0603 26.6415 36.916 26.5834 36.7659 26.5834H32.5348V23.9863C32.5348 22.738 32.8405 22.1043 34.5114 22.1043L36.935 22.1035C37.2474 22.1035 37.5005 21.8569 37.5005 21.5529V17.4312C37.5005 17.1275 37.2476 16.8812 36.9356 16.8806Z" fill="#1E5187"/>
</svg>
