<svg width="60" height="60" viewBox="0 0 60 60" fill="none" xmlns="http://www.w3.org/2000/svg">
<rect width="60" height="60" rx="30" fill="white"/>
<path fill-rule="evenodd" clip-rule="evenodd" d="M29.067 40.0434H31.1292C31.1292 40.0434 31.7521 39.9756 32.0701 39.6359C32.3629 39.3241 32.3535 38.7385 32.3535 38.7385C32.3535 38.7385 32.3132 35.997 33.5975 35.5932C34.8634 35.1956 36.4891 38.2429 38.2122 39.4146C39.5152 40.3014 40.5053 40.1069 40.5053 40.1069L45.1126 40.0434C45.1126 40.0434 47.5228 39.8963 46.38 38.0188C46.2863 37.8652 45.7144 36.6299 42.9544 34.0916C40.0655 31.435 40.4524 31.8647 43.9323 27.2693C46.0517 24.4707 46.8989 22.7621 46.6343 22.0304C46.3819 21.3334 44.8231 21.5176 44.8231 21.5176L39.6356 21.5496C39.6356 21.5496 39.251 21.4976 38.9658 21.6666C38.6871 21.8322 38.5078 22.2183 38.5078 22.2183C38.5078 22.2183 37.6867 24.384 36.5917 26.2257C34.2817 30.112 33.3581 30.3171 32.9806 30.0758C32.1024 29.5134 32.3216 27.8164 32.3216 26.6109C32.3216 22.8447 32.8982 21.2744 31.199 20.8679C30.6351 20.7329 30.2201 20.6438 28.778 20.6294C26.9271 20.6104 25.3604 20.635 24.4733 21.0656C23.8832 21.3519 23.4279 21.99 23.7052 22.0266C24.048 22.0721 24.8246 22.2341 25.2363 22.7895C25.7679 23.506 25.7491 25.1153 25.7491 25.1153C25.7491 25.1153 26.0545 29.5487 25.0358 30.0995C24.3365 30.4772 23.3773 29.706 21.318 26.1802C20.2627 24.3742 19.4661 22.3779 19.4661 22.3779C19.4661 22.3779 19.3124 22.0048 19.0384 21.8053C18.7059 21.5635 18.2413 21.4865 18.2413 21.4865L13.3118 21.5185C13.3118 21.5185 12.5718 21.5389 12.3001 21.8577C12.0585 22.1413 12.2809 22.7278 12.2809 22.7278C12.2809 22.7278 16.1402 31.6735 20.51 36.1816C24.5169 40.3148 29.067 40.0434 29.067 40.0434Z" fill="#4D76A1"/>
</svg>
