<svg width="211" height="31" viewBox="0 0 211 31" fill="none" xmlns="http://www.w3.org/2000/svg">
<path d="M168.506 0H167.794V30.9215H168.506V0Z" fill="white"/>
<path d="M180.469 18.9809H178.018V11.8479H182.236V12.5612H178.838V14.8652H180.427C181.852 14.8652 182.785 15.4643 182.785 16.8981C182.785 18.3318 181.894 18.9809 180.469 18.9809ZM180.469 18.2676C181.502 18.2676 181.987 17.754 181.987 16.8838C181.987 16.0136 181.495 15.5357 180.391 15.5357H178.838V18.3033L180.469 18.2676Z" fill="white"/>
<path d="M183.825 13.7524H184.652V14.6012C184.843 14.3041 185.105 14.059 185.414 13.8879C185.721 13.7161 186.067 13.6252 186.419 13.624C187.787 13.624 188.791 14.6226 188.791 16.249V16.3274C188.791 17.9252 187.858 19.0237 186.419 19.0237C186.066 19.0392 185.716 18.9578 185.407 18.7883C185.096 18.6229 184.835 18.3764 184.652 18.075V20.757H183.825V13.7524ZM187.951 16.4059V16.3346C187.951 15.015 187.238 14.3516 186.34 14.3516C185.443 14.3516 184.637 14.9936 184.637 16.3346V16.4059C184.637 17.7469 185.35 18.3746 186.355 18.3746C187.359 18.3746 187.979 17.6613 187.979 16.4059H187.951Z" fill="white"/>
<path d="M189.618 16.4059V16.3346C189.618 15.9971 189.683 15.6628 189.81 15.3502C189.943 15.0348 190.137 14.7492 190.382 14.5103C190.627 14.2714 190.917 14.084 191.235 13.9593C191.866 13.7024 192.571 13.7024 193.202 13.9593C193.512 14.0912 193.794 14.2799 194.035 14.5157C194.268 14.7588 194.457 15.0414 194.591 15.3502C194.718 15.6628 194.784 15.9971 194.783 16.3346V16.4059C194.784 16.7434 194.718 17.0777 194.591 17.3903C194.457 17.6991 194.268 17.9817 194.035 18.2248C193.794 18.4606 193.512 18.6493 193.202 18.7812C192.571 19.0381 191.866 19.0381 191.235 18.7812C190.917 18.6564 190.627 18.4691 190.382 18.2302C190.137 17.9913 189.943 17.7057 189.81 17.3903C189.683 17.0777 189.618 16.7434 189.618 16.4059ZM193.893 16.4059V16.3346C193.893 15.1291 193.223 14.3445 192.183 14.3445C191.143 14.3445 190.48 15.1291 190.48 16.3274V16.4059C190.48 17.5971 191.128 18.3746 192.183 18.3746C193.237 18.3746 193.893 17.59 193.893 16.4059Z" fill="white"/>
<path d="M196.65 16.3132V18.9809H195.824V13.7524H196.65V16.1919L198.788 13.7524H199.757L197.527 16.2133L199.949 18.9809H198.937L196.65 16.3132Z" fill="white"/>
<path d="M200.127 16.4059V16.3274C200.099 15.9874 200.14 15.6452 200.248 15.3216C200.357 14.999 200.532 14.7026 200.761 14.4514C200.993 14.2022 201.271 14.001 201.581 13.8594C201.893 13.7234 202.23 13.653 202.571 13.6525C203.782 13.6525 204.922 14.3658 204.922 16.2489V16.52H200.989C200.989 17.7041 201.595 18.3674 202.664 18.3674C203.469 18.3674 203.939 18.0679 204.053 17.4544H204.88C204.701 18.503 203.832 19.0522 202.657 19.0522C202.311 19.0652 201.966 19.0044 201.646 18.8741C201.325 18.7438 201.036 18.5467 200.797 18.2961C200.559 18.0458 200.376 17.7481 200.261 17.4224C200.146 17.0967 200.1 16.7504 200.127 16.4059ZM204.067 15.8495C203.989 14.7653 203.433 14.3373 202.571 14.3373C202.166 14.337 201.777 14.4958 201.488 14.7795C201.201 15.0635 201.033 15.446 201.018 15.8495H204.067Z" fill="white"/>
<path d="M206.034 13.7524H206.86V14.6012C207.052 14.3041 207.314 14.059 207.623 13.8879C207.93 13.7161 208.276 13.6252 208.627 13.624C209.995 13.624 211 14.6226 211 16.249V16.3274C211 17.9252 210.067 19.0237 208.627 19.0237C208.275 19.0365 207.926 18.9554 207.616 18.7887C207.305 18.622 207.044 18.3757 206.86 18.075V20.757H206.034V13.7524ZM210.145 16.4059V16.3346C210.145 15.015 209.432 14.3516 208.535 14.3516C207.637 14.3516 206.832 14.9936 206.832 16.3346V16.4059C206.832 17.7469 207.544 18.3746 208.549 18.3746C209.554 18.3746 210.145 17.6827 210.145 16.4059Z" fill="white"/>
<path d="M15.4469 0.0713518C11.8729 0.0696762 8.40881 1.3088 5.6451 3.57757C2.88138 5.84633 0.989035 9.00433 0.290535 12.5134C-0.407964 16.0225 0.130612 19.6654 1.81448 22.8215C3.49835 25.9776 6.22331 28.4514 9.52498 29.8215C12.8267 31.1915 16.5007 31.373 19.9211 30.3349C23.3414 29.2969 26.2964 27.1036 28.2824 24.1288C30.2684 21.154 31.1625 17.5817 30.8124 14.0209C30.4623 10.46 28.8897 7.13089 26.3624 4.6008C23.4655 1.70507 19.5406 0.0763947 15.4469 0.0713518ZM13.2524 22.1123L12.1124 25.4862C10.0258 24.7692 8.21512 23.4175 6.93319 21.6201C5.65126 19.8227 4.96216 17.6693 4.96216 15.4608C4.96216 13.2522 5.65126 11.0989 6.93319 9.30145C8.21512 7.50405 10.0258 6.15241 12.1124 5.43537L13.2524 8.81641C11.87 9.29214 10.6705 10.1881 9.82136 11.3793C8.9722 12.5705 8.51576 13.9974 8.51576 15.4608C8.51576 16.9242 8.9722 18.3511 9.82136 19.5423C10.6705 20.7334 11.87 21.6294 13.2524 22.1052V22.1123ZM18.5677 25.5647L17.4989 22.1551C18.9071 21.7023 20.1364 20.8156 21.0112 19.6217C21.8861 18.4278 22.3618 16.9877 22.3705 15.5071C22.3792 14.0264 21.9204 12.5808 21.0596 11.3767C20.1988 10.1726 18.9801 9.27153 17.5773 8.80214L18.6817 5.41397C20.8003 6.12024 22.6416 7.47902 23.9424 9.29603C25.2432 11.113 25.9368 13.2953 25.9242 15.5307C25.9115 17.7662 25.1932 19.9404 23.872 21.7425C22.5507 23.5447 20.6941 24.8825 18.5677 25.5647Z" fill="white"/>
<path d="M156.971 18.2961L158.688 20.3504C157.943 21.1162 157.049 21.7204 156.061 22.1253C155.073 22.5303 154.013 22.7274 152.945 22.7043C151.576 22.7619 150.213 22.4904 148.97 21.9125C146.69 20.7855 145.543 18.4816 145.543 15.6926C145.543 11.4128 148.393 8.35985 152.625 8.35985C157.292 8.35985 159.572 11.8693 159.265 16.4273H148.578C148.605 16.9894 148.772 17.536 149.062 18.0179C149.343 18.506 149.74 18.9175 150.217 19.2163C150.976 19.6264 151.816 19.8651 152.678 19.9157C153.54 19.9662 154.402 19.8273 155.204 19.5087C155.863 19.2291 156.457 18.8163 156.95 18.2961H156.971ZM148.613 14.0163H156.159C156.042 13.1269 155.594 12.3145 154.905 11.7409C154.212 11.1706 153.327 10.8895 152.432 10.9563C151.54 10.9224 150.666 11.2085 149.965 11.7629C149.265 12.3174 148.786 13.1038 148.613 13.9806V14.0163ZM76.8361 22.3477H80.6978L74.6345 15.3145L80.6052 8.70223H76.8005L72.2405 13.9949H70.9081V8.70223H67.9512V22.3477H70.9081V16.9194H72.2618L76.8361 22.3477ZM89.3975 11.1488C86.9322 11.1488 85.2935 13.0748 85.2935 15.5214C85.2935 17.968 86.9322 19.8939 89.3975 19.8939C91.8627 19.8939 93.4801 18.0108 93.4801 15.5214C93.4801 13.032 91.9269 11.1488 89.3975 11.1488ZM89.9034 8.35985C93.7437 8.35985 96.5724 11.3771 96.5724 15.4928C96.5724 19.6086 93.7651 22.6758 89.9034 22.6758C89.0849 22.7117 88.2684 22.5706 87.5093 22.2621C86.7476 21.9548 86.062 21.485 85.5001 20.8854V28.0184H82.5218V8.70223H85.4217V10.3214C85.9645 9.66754 86.6523 9.14967 87.4304 8.80911C88.2085 8.46854 89.0553 8.3147 89.9034 8.35985ZM128.713 8.70223H116.508V11.4128H121.125V22.3263H124.096V11.4128H128.713V8.70223ZM65.8992 8.70223H53.6941V11.4128H58.3111V22.3263H61.2751V11.4128H65.9063L65.8992 8.70223ZM50.0817 15.5214C50.136 14.9293 50.0665 14.3323 49.8776 13.7686C49.6886 13.2049 49.3845 12.6868 48.9844 12.2473C48.5838 11.8072 48.0958 11.4555 47.5517 11.2149C47.0076 10.9743 46.4193 10.8501 45.8245 10.8501C45.2297 10.8501 44.6414 10.9743 44.0973 11.2149C43.5532 11.4555 43.0652 11.8072 42.6645 12.2473C42.2645 12.6868 41.9603 13.2049 41.7714 13.7686C41.5825 14.3323 41.513 14.9293 41.5673 15.5214C41.513 16.1135 41.5825 16.7104 41.7714 17.2741C41.9603 17.8378 42.2645 18.3559 42.6645 18.7954C43.0652 19.2356 43.5532 19.5872 44.0973 19.8278C44.6414 20.0684 45.2297 20.1927 45.8245 20.1927C46.4193 20.1927 47.0076 20.0684 47.5517 19.8278C48.0958 19.5872 48.5838 19.2356 48.9844 18.7954C49.3845 18.3559 49.6886 17.8378 49.8776 17.2741C50.0665 16.7104 50.136 16.1135 50.0817 15.5214ZM38.5178 15.5214C38.4986 14.4355 38.7208 13.3589 39.1683 12.3696C39.6158 11.3802 40.2775 10.5029 41.1054 9.80106C41.9333 9.09923 42.9067 8.59046 43.9551 8.31159C45.0036 8.03272 46.1009 7.99073 47.1676 8.18865C48.9622 8.51982 50.5682 9.51099 51.6699 10.9673C52.7717 12.4237 53.2895 14.2399 53.1217 16.0591C52.9538 17.8783 52.1124 19.5688 50.7627 20.7984C49.4131 22.0281 47.6529 22.7079 45.8281 22.7043C44.8678 22.739 43.9105 22.5788 43.0137 22.2335C41.6626 21.7132 40.5033 20.7908 39.6918 19.5907C38.8804 18.3907 38.4557 16.9704 38.475 15.5214H38.5178ZM143.134 8.70223V22.3477H140.213V13.5527L133.088 22.3548H130.751V8.70223H133.672V17.4544L140.797 8.6737L143.134 8.70223ZM114.478 22.3477H111.521V8.70223H114.478V22.3477ZM106.875 17.6898C106.888 17.4181 106.847 17.1465 106.754 16.8909C106.659 16.6383 106.513 16.4078 106.326 16.2133C106.136 16.0199 105.908 15.867 105.657 15.7639C105.407 15.6574 105.137 15.6063 104.866 15.6141H101.888V19.8226H104.887C105.16 19.8229 105.43 19.7646 105.678 19.6514C105.929 19.5422 106.155 19.3818 106.341 19.1806C106.526 18.9812 106.669 18.7463 106.761 18.4901C106.853 18.2338 106.891 17.9616 106.875 17.6898ZM109.818 17.6898C109.818 20.4217 107.837 22.3477 104.958 22.3477H98.9664V8.70223H101.888V13.1104H105.222C105.836 13.0618 106.453 13.1445 107.032 13.3529C107.612 13.5653 108.14 13.9012 108.578 14.3373C109.016 14.7723 109.355 15.2973 109.572 15.876C109.788 16.4547 109.877 17.0735 109.832 17.6898H109.818Z" fill="white"/>
</svg>
