<svg width="159" height="23" viewBox="0 0 159 23" fill="none" xmlns="http://www.w3.org/2000/svg">
<path d="M126.979 0H126.442V22.9418H126.979V0Z" fill="white"/>
<path d="M135.993 14.0826H134.146V8.79041H137.325V9.31963H134.764V11.029H135.961C137.035 11.029 137.738 11.4736 137.738 12.5373C137.738 13.601 137.067 14.0826 135.993 14.0826ZM135.993 13.5534C136.772 13.5534 137.137 13.1724 137.137 12.5267C137.137 11.8811 136.767 11.5265 135.934 11.5265H134.764V13.5799L135.993 13.5534Z" fill="white"/>
<path d="M138.522 10.2034H139.145V10.8332C139.289 10.6127 139.487 10.4309 139.72 10.304C139.951 10.1764 140.211 10.1091 140.477 10.1082C141.507 10.1082 142.264 10.8491 142.264 12.0557V12.1139C142.264 13.2994 141.561 14.1144 140.477 14.1144C140.211 14.1259 139.947 14.0655 139.714 13.9397C139.48 13.817 139.283 13.6341 139.145 13.4105V15.4004H138.522V10.2034ZM141.631 12.1721V12.1192C141.631 11.1401 141.094 10.648 140.418 10.648C139.741 10.648 139.134 11.1243 139.134 12.1192V12.1721C139.134 13.1671 139.671 13.6328 140.428 13.6328C141.185 13.6328 141.652 13.1036 141.652 12.1721H141.631Z" fill="white"/>
<path d="M142.887 12.1721V12.1192C142.887 11.8688 142.937 11.6208 143.032 11.3889C143.132 11.1549 143.279 10.943 143.463 10.7657C143.648 10.5885 143.866 10.4495 144.106 10.3569C144.581 10.1663 145.113 10.1663 145.588 10.3569C145.822 10.4548 146.035 10.5948 146.216 10.7697C146.392 10.9501 146.534 11.1597 146.635 11.3889C146.731 11.6208 146.78 11.8688 146.78 12.1192V12.1721C146.78 12.4225 146.731 12.6706 146.635 12.9024C146.534 13.1316 146.392 13.3412 146.216 13.5216C146.035 13.6966 145.822 13.8366 145.588 13.9344C145.113 14.125 144.581 14.125 144.106 13.9344C143.866 13.8419 143.648 13.7029 143.463 13.5256C143.279 13.3484 143.132 13.1365 143.032 12.9024C142.937 12.6706 142.887 12.4225 142.887 12.1721ZM146.109 12.1721V12.1192C146.109 11.2248 145.604 10.6427 144.82 10.6427C144.036 10.6427 143.537 11.2248 143.537 12.1139V12.1721C143.537 13.0559 144.026 13.6328 144.82 13.6328C145.615 13.6328 146.109 13.0506 146.109 12.1721Z" fill="white"/>
<path d="M148.187 12.1033V14.0826H147.564V10.2034H148.187V12.0134L149.797 10.2034H150.527L148.847 12.0292L150.672 14.0826H149.91L148.187 12.1033Z" fill="white"/>
<path d="M150.807 12.1721V12.1139C150.786 11.8617 150.817 11.6078 150.898 11.3677C150.98 11.1283 151.112 10.9084 151.285 10.7221C151.459 10.5372 151.669 10.3879 151.902 10.2828C152.138 10.1819 152.392 10.1297 152.648 10.1293C153.561 10.1293 154.42 10.6586 154.42 12.0557V12.2568H151.456C151.456 13.1353 151.913 13.6275 152.718 13.6275C153.325 13.6275 153.679 13.4052 153.765 12.9501H154.388C154.254 13.728 153.599 14.1355 152.713 14.1355C152.452 14.1452 152.193 14.1001 151.951 14.0034C151.709 13.9067 151.491 13.7605 151.311 13.5746C151.132 13.3888 150.995 13.168 150.908 12.9263C150.821 12.6847 150.786 12.4277 150.807 12.1721ZM153.776 11.7593C153.717 10.9549 153.298 10.6374 152.648 10.6374C152.343 10.6372 152.05 10.755 151.832 10.9655C151.616 11.1762 151.49 11.46 151.478 11.7593H153.776Z" fill="white"/>
<path d="M155.258 10.2034H155.881V10.8332C156.025 10.6127 156.222 10.4309 156.455 10.304C156.687 10.1764 156.947 10.1091 157.212 10.1082C158.243 10.1082 159 10.8491 159 12.0557V12.1139C159 13.2994 158.297 14.1144 157.212 14.1144C156.947 14.1239 156.684 14.0637 156.45 13.94C156.216 13.8164 156.019 13.6336 155.881 13.4105V15.4004H155.258V10.2034ZM158.356 12.1721V12.1192C158.356 11.1401 157.819 10.648 157.142 10.648C156.466 10.648 155.859 11.1243 155.859 12.1192V12.1721C155.859 13.1671 156.396 13.6328 157.153 13.6328C157.91 13.6328 158.356 13.1194 158.356 12.1721Z" fill="white"/>
<path d="M11.64 0.0529187C8.94678 0.0516756 6.33643 0.971028 4.25382 2.6543C2.17121 4.33758 0.745224 6.68061 0.218867 9.28411C-0.30749 11.8876 0.098356 14.5905 1.36724 16.9321C2.63613 19.2737 4.68954 21.1091 7.17753 22.1256C9.66552 23.1421 12.4341 23.2767 15.0115 22.5065C17.589 21.7364 19.8157 20.1091 21.3122 17.902C22.8088 15.6948 23.4826 13.0445 23.2188 10.4026C22.9549 7.76065 21.7699 5.29064 19.8655 3.41348C17.6825 1.26503 14.7249 0.0566602 11.64 0.0529187ZM9.98635 16.4059L9.12729 18.9091C7.55495 18.3771 6.19047 17.3743 5.22447 16.0407C4.25847 14.7072 3.73919 13.1095 3.73919 11.4709C3.73919 9.83229 4.25847 8.23461 5.22447 6.90106C6.19047 5.5675 7.55495 4.56467 9.12729 4.03267L9.98635 6.54118C8.94465 6.89415 8.04076 7.55892 7.40087 8.44269C6.76097 9.32646 6.41702 10.3851 6.41702 11.4709C6.41702 12.5567 6.76097 13.6153 7.40087 14.4991C8.04076 15.3829 8.94465 16.0476 9.98635 16.4006V16.4059ZM13.9917 18.9673L13.1863 16.4376C14.2475 16.1017 15.1738 15.4438 15.833 14.558C16.4923 13.6722 16.8508 12.6038 16.8573 11.5052C16.8639 10.4066 16.5182 9.33412 15.8695 8.44075C15.2209 7.54739 14.3024 6.87886 13.2454 6.5306L14.0776 4.01679C15.6741 4.54081 17.0616 5.54893 18.0418 6.89704C19.022 8.24514 19.5447 9.86421 19.5352 11.5228C19.5257 13.1813 18.9844 14.7945 17.9888 16.1315C16.9931 17.4686 15.5941 18.4612 13.9917 18.9673Z" fill="white"/>
<path d="M118.286 13.5745L119.58 15.0987C119.019 15.6669 118.345 16.1151 117.601 16.4156C116.856 16.716 116.057 16.8622 115.253 16.8451C114.221 16.8878 113.193 16.6864 112.257 16.2577C110.539 15.4215 109.674 13.7121 109.674 11.6429C109.674 8.46754 111.822 6.20247 115.011 6.20247C118.528 6.20247 120.246 8.80624 120.015 12.188H111.961C111.982 12.6051 112.108 13.0106 112.326 13.3681C112.538 13.7303 112.837 14.0356 113.196 14.2572C113.769 14.5615 114.402 14.7387 115.051 14.7761C115.7 14.8136 116.35 14.7106 116.955 14.4742C117.451 14.2667 117.899 13.9604 118.27 13.5745H118.286ZM111.988 10.3992H117.674C117.586 9.73934 117.248 9.13655 116.729 8.71098C116.207 8.28783 115.54 8.07932 114.866 8.12883C114.194 8.10374 113.535 8.31597 113.007 8.72733C112.479 9.1387 112.118 9.72217 111.988 10.3727V10.3992ZM57.9 16.5805H60.8101L56.241 11.3624L60.7403 6.45649H57.8732L54.437 10.3833H53.433V6.45649H51.2048V16.5805H53.433V12.5531H54.4531L57.9 16.5805ZM67.3657 8.27173C65.508 8.27173 64.2731 9.70063 64.2731 11.5159C64.2731 13.3311 65.508 14.76 67.3657 14.76C69.2234 14.76 70.4422 13.3628 70.4422 11.5159C70.4422 9.66887 69.2718 8.27173 67.3657 8.27173ZM67.7469 6.20247C70.6409 6.20247 72.7724 8.44108 72.7724 11.4947C72.7724 14.5483 70.657 16.824 67.7469 16.824C67.1302 16.8506 66.5149 16.7459 65.9429 16.517C65.3689 16.289 64.8522 15.9405 64.4288 15.4956V20.7878H62.1846V6.45649H64.3698V7.65783C64.7788 7.17269 65.2971 6.78847 65.8834 6.53579C66.4698 6.28311 67.1079 6.16897 67.7469 6.20247ZM96.9923 6.45649H87.7951V8.46754H91.2743V16.5646H93.5132V8.46754H96.9923V6.45649ZM49.6585 6.45649H40.4613V8.46754H43.9404V16.5646H46.174V8.46754H49.6639L49.6585 6.45649ZM37.7391 11.5159C37.7801 11.0766 37.7277 10.6337 37.5853 10.2154C37.443 9.7972 37.2138 9.4128 36.9123 9.08673C36.6104 8.76015 36.2427 8.49927 35.8327 8.32076C35.4227 8.14225 34.9794 8.05005 34.5311 8.05005C34.0829 8.05005 33.6396 8.14225 33.2296 8.32076C32.8195 8.49927 32.4518 8.76015 32.1499 9.08673C31.8485 9.4128 31.6193 9.7972 31.4769 10.2154C31.3345 10.6337 31.2822 11.0766 31.3231 11.5159C31.2822 11.9552 31.3345 12.398 31.4769 12.8163C31.6193 13.2345 31.8485 13.6189 32.1499 13.945C32.4518 14.2716 32.8195 14.5324 33.2296 14.711C33.6396 14.8895 34.0829 14.9817 34.5311 14.9817C34.9794 14.9817 35.4227 14.8895 35.8327 14.711C36.2427 14.5324 36.6104 14.2716 36.9123 13.945C37.2138 13.6189 37.443 13.2345 37.5853 12.8163C37.7277 12.398 37.7801 11.9552 37.7391 11.5159ZM29.0251 11.5159C29.0106 10.7102 29.1781 9.91145 29.5153 9.17743C29.8525 8.4434 30.3511 7.79247 30.975 7.27175C31.5989 6.75104 32.3324 6.37357 33.1225 6.16666C33.9125 5.95976 34.7394 5.92861 35.5432 6.07545C36.8955 6.32116 38.1058 7.05654 38.936 8.13706C39.7662 9.21759 40.1564 10.5651 40.0299 11.9148C39.9034 13.2645 39.2694 14.5188 38.2524 15.4311C37.2353 16.3434 35.9089 16.8478 34.5338 16.8451C33.8102 16.8708 33.0888 16.752 32.413 16.4958C31.3949 16.1098 30.5213 15.4255 29.9098 14.5351C29.2983 13.6447 28.9783 12.591 28.9929 11.5159H29.0251ZM107.859 6.45649V16.5805H105.658V10.0552L100.289 16.5858H98.5279V6.45649H100.729V12.95L106.098 6.43532L107.859 6.45649ZM86.2649 16.5805H84.0367V6.45649H86.2649V16.5805ZM80.5361 13.1247C80.5461 12.9231 80.515 12.7216 80.4448 12.532C80.3731 12.3446 80.2635 12.1735 80.1227 12.0292C79.9789 11.8857 79.8073 11.7723 79.618 11.6958C79.4298 11.6168 79.2265 11.5789 79.022 11.5847H76.7777V14.7071H79.0381C79.2437 14.7073 79.447 14.664 79.6341 14.5801C79.8233 14.499 79.9934 14.3801 80.1334 14.2308C80.273 14.0829 80.3806 13.9086 80.4499 13.7184C80.5191 13.5283 80.5484 13.3263 80.5361 13.1247ZM82.7535 13.1247C82.7535 15.1516 81.2609 16.5805 79.0918 16.5805H74.5764V6.45649H76.7777V9.72709H79.2905C79.7528 9.69104 80.2177 9.75238 80.6542 9.90702C81.0916 10.0646 81.4891 10.3138 81.8193 10.6373C82.1497 10.9601 82.4052 11.3496 82.5683 11.779C82.7314 12.2083 82.7983 12.6674 82.7643 13.1247H82.7535Z" fill="white"/>
</svg>
